<svg version="1.1" id="Layer_1" xmlns="http://www.w3.org/2000/svg" xmlns:xlink="http://www.w3.org/1999/xlink" x="0px" y="0px"
	 width="100%" viewBox="0 0 746 328" enable-background="new 0 0 746 328" xml:space="preserve">
<path fill="#000000" opacity="1.000000" stroke="none" 
	d="
M519.000000,329.000000 
	C346.040131,329.000000 173.580246,329.000000 1.060179,329.000000 
	C1.060179,219.732239 1.060179,110.464447 1.060179,1.098322 
	C249.543259,1.098322 498.086578,1.098322 746.814941,1.098322 
	C746.814941,110.333076 746.814941,219.666519 746.814941,329.000000 
	C671.131042,329.000000 595.315491,329.000000 519.000000,329.000000 
M400.583435,177.492706 
	C400.584564,181.487320 400.596283,185.481949 400.583679,189.476517 
	C400.571625,193.289307 401.733093,196.038147 406.214233,195.975952 
	C410.529358,195.916077 411.998138,193.440369 411.923767,189.500748 
	C411.864197,186.344406 411.911743,183.186020 411.911743,180.028549 
	C412.476288,179.885559 413.040833,179.742569 413.605347,179.599564 
	C415.658264,181.886230 417.714722,184.169708 419.763367,186.460190 
	C424.121613,191.332886 425.732300,191.317215 430.024994,186.339249 
	C432.064545,183.974136 434.095398,181.601532 436.130188,179.232300 
	C436.810577,179.508362 437.490936,179.784409 438.171326,180.060455 
	C438.171326,183.284058 438.226196,186.508835 438.157532,189.730972 
	C438.070740,193.804184 439.841858,195.999313 444.065765,195.977081 
	C448.299347,195.954803 449.395050,193.291046 449.399414,189.715790 
	C449.412231,179.230011 449.617767,168.736145 449.223907,158.265167 
	C449.145050,156.168289 447.000244,152.727829 445.367126,152.443985 
	C442.920715,152.018829 439.142242,153.042923 437.602173,154.864258 
	C433.984558,159.142593 431.395538,164.283356 428.306824,169.020721 
	C427.362488,170.469131 426.146790,171.740616 424.935425,173.241730 
	C423.778992,172.139755 422.899689,171.572281 422.388031,170.770279 
	C419.168945,165.724380 416.011993,160.638397 412.874237,155.541199 
	C410.841370,152.238937 407.541534,150.761459 404.398621,152.375168 
	C402.492401,153.353912 400.966370,156.647644 400.752228,159.034393 
	C400.233673,164.813324 400.583588,170.670181 400.583435,177.492706 
M294.073120,193.605453 
	C296.963409,196.368561 300.309845,197.290756 303.396667,194.448608 
	C306.996918,191.133789 303.598969,188.473572 301.811523,185.852676 
	C300.616211,184.099976 299.224731,182.481033 297.921661,180.802994 
	C299.209442,179.589600 300.271210,178.759338 301.127411,177.753998 
	C305.711884,172.370895 306.278595,166.192474 303.599579,159.984451 
	C301.119110,154.236481 296.194153,151.754807 289.900330,151.923981 
	C285.409027,152.044693 280.907379,151.834274 276.419373,152.006470 
	C271.209106,152.206390 268.389709,154.933029 268.303772,160.163391 
	C268.142426,169.981781 268.164764,179.805847 268.291504,189.625229 
	C268.358978,194.851837 271.721375,197.251846 276.619080,195.812485 
	C280.197998,194.760696 280.526672,191.871887 280.770325,188.691223 
	C280.903870,186.947708 282.062378,185.282700 282.758728,183.582275 
	C284.417175,184.467636 286.343781,185.065094 287.673340,186.303543 
	C289.851227,188.332169 291.640961,190.777527 294.073120,193.605453 
M218.629913,162.312729 
	C217.923126,160.012451 217.936295,156.815613 216.383591,155.568710 
	C210.017349,150.456284 196.553986,150.674545 190.007477,155.434143 
	C186.171112,158.223343 184.522995,162.050308 185.032364,166.718658 
	C185.526276,171.245270 187.959503,174.469284 192.249985,176.036774 
	C196.450974,177.571564 200.758896,178.811951 204.974350,180.309708 
	C206.541122,180.866379 207.978745,181.786545 209.475266,182.540939 
	C209.463303,183.113647 209.451355,183.686356 209.439392,184.259064 
	C207.244308,184.807053 204.948685,186.045029 202.877457,185.743179 
	C199.678513,185.276978 196.366684,184.209793 193.587982,182.573486 
	C189.863464,180.380203 187.073990,180.348953 184.786072,184.204849 
	C182.480042,188.091278 184.625916,190.424301 187.794861,192.315247 
	C195.076553,196.660355 203.016602,196.907608 210.946579,195.278885 
	C217.492310,193.934479 221.676682,188.853928 221.937607,183.336151 
	C222.224976,177.259171 218.683075,172.446930 211.855774,170.146194 
	C208.570953,169.039230 205.025375,168.680298 201.785065,167.478088 
	C200.198700,166.889526 199.040070,165.148087 197.687851,163.928421 
	C199.815491,163.073456 201.984100,161.455307 204.059845,161.566757 
	C206.381866,161.691406 208.605530,163.417374 210.897858,164.385223 
	C213.673462,165.557175 216.368851,166.136871 218.629913,162.312729 
M313.255493,169.511108 
	C313.256653,176.495270 313.259186,183.479431 313.258362,190.463593 
	C313.257935,194.068726 314.800934,196.036789 318.660400,195.998825 
	C326.807770,195.918640 334.956604,195.949875 343.104614,195.985123 
	C346.638947,196.000412 348.439056,193.953613 348.528534,190.796585 
	C348.622894,187.466324 346.751678,185.748856 343.129700,185.898453 
	C338.315582,186.097290 333.486420,185.903412 328.664764,185.961823 
	C326.160492,185.992157 324.337952,185.356552 324.476746,182.404739 
	C324.607788,179.619202 326.266968,178.812408 328.846985,178.946289 
	C331.500153,179.083969 334.167236,179.003784 336.826935,178.952484 
	C340.383362,178.883911 341.879852,176.749908 341.871063,173.474380 
	C341.862152,170.159897 340.015503,168.762009 336.729309,168.922150 
	C334.075043,169.051483 331.321045,169.352341 328.780273,168.799927 
	C327.132263,168.441605 325.788025,166.686005 324.307678,165.556473 
	C325.769073,164.364075 327.147125,162.291275 328.707458,162.143524 
	C333.487061,161.690887 338.342468,161.831863 343.157166,162.023788 
	C346.809143,162.169373 348.604584,160.348083 348.524139,157.061707 
	C348.446167,153.876404 346.589783,151.912216 343.067291,151.934387 
	C335.251984,151.983551 327.434448,151.851135 319.621277,151.989716 
	C315.531982,152.062241 313.166687,154.172424 313.245056,158.540848 
	C313.304688,161.865555 313.256012,165.192215 313.255493,169.511108 
M394.350342,195.175079 
	C394.728912,193.682831 395.862732,191.853470 395.370209,190.750046 
	C389.960541,178.631332 384.465973,166.542816 378.607910,154.636292 
	C376.670197,150.697952 370.081696,150.457397 368.170563,154.263382 
	C362.212585,166.128571 356.627869,178.186874 351.159363,190.288208 
	C349.821716,193.248260 351.386414,195.361084 354.752899,195.943115 
	C359.447937,196.754837 361.781067,194.511261 363.069763,190.220596 
	C364.514618,185.409836 367.975098,183.826859 372.995178,183.844910 
	C378.057678,183.863113 381.961517,184.938660 383.392242,190.198425 
	C384.927155,195.841217 388.662018,196.868149 394.350342,195.175079 
M491.712097,161.976257 
	C496.209015,161.975632 500.709869,161.859039 505.201538,162.012238 
	C508.601532,162.128204 510.292694,160.447571 510.314026,157.324142 
	C510.335876,154.123444 508.843414,151.932205 505.194519,151.944687 
	C497.200104,151.972015 489.202362,151.820999 481.212463,152.012390 
	C477.722534,152.095993 475.177551,153.816635 475.174225,157.819077 
	C475.165222,168.644974 475.157501,179.470932 475.184143,190.296768 
	C475.192841,193.832809 476.739990,195.904861 480.566376,196.003479 
	C484.631714,196.108276 486.318298,194.013992 486.390930,190.229034 
	C486.429260,188.231766 486.488739,186.224579 486.342377,184.236328 
	C486.068909,180.522141 487.292084,178.524429 491.414825,178.930481 
	C493.888641,179.174133 496.407471,178.999847 498.904968,178.954453 
	C502.283325,178.893066 503.636353,176.716217 503.719147,173.755981 
	C503.807098,170.609787 502.276367,168.780487 498.832367,168.927338 
	C496.172394,169.040741 493.428467,169.325729 490.865204,168.814911 
	C489.153503,168.473785 486.612762,167.092712 486.343170,165.785233 
	C485.760742,162.960571 487.972137,161.772934 491.712097,161.976257 
M238.254822,174.536469 
	C238.306946,179.532623 238.353668,184.528824 238.412918,189.524902 
	C238.461655,193.635422 240.004303,196.081940 244.657074,196.038803 
	C249.262253,195.996124 250.297791,193.170258 250.373978,189.530228 
	C250.495956,183.701294 250.409363,177.868042 250.414215,172.036606 
	C250.421417,163.387680 250.999496,162.632080 259.549438,162.026810 
	C263.390259,161.754898 264.900818,159.632416 264.925873,156.234390 
	C264.951721,152.728363 262.563721,151.914978 259.518463,151.929642 
	C249.521957,151.977814 239.523376,152.053696 229.529160,151.894684 
	C225.607651,151.832321 223.955688,153.811493 223.904694,157.269958 
	C223.851273,160.891373 226.246643,161.914581 229.550873,162.008270 
	C238.255325,162.255081 238.253204,162.330490 238.254791,171.055084 
	C238.254944,171.888153 238.254822,172.721207 238.254822,174.536469 
M528.607178,159.830887 
	C526.998291,157.508133 525.438782,155.149155 523.767822,152.871918 
	C521.754272,150.127747 518.811707,150.163574 516.849182,152.151245 
	C515.474182,153.543854 514.668091,156.587616 515.170227,158.479248 
	C515.859863,161.077179 517.963867,163.326828 519.573303,165.648468 
	C524.873474,173.294205 530.707825,180.604691 529.343689,190.968430 
	C528.934509,194.077209 531.297058,196.060989 534.818726,195.999619 
	C538.440735,195.936478 540.199707,193.820145 539.890442,190.614639 
	C539.133850,182.772217 542.122864,176.367279 546.591858,170.304550 
	C549.055664,166.962128 551.252441,163.421219 553.531311,159.944733 
	C555.491394,156.954788 556.082336,153.941208 552.518738,151.783966 
	C549.166992,149.755020 546.700378,151.098145 544.634216,154.248108 
	C541.573608,158.914124 538.207642,163.379837 534.735107,168.263458 
	C532.527283,165.250626 530.763367,162.843613 528.607178,159.830887 
M401.575409,110.923134 
	C405.490204,114.781891 409.570374,118.490265 413.263245,122.550850 
	C415.841309,125.385597 418.590759,125.932121 420.310181,126.350166 
	C404.414917,109.695724 388.519653,93.041290 372.045135,75.779938 
	C356.074097,92.433891 340.318848,108.862831 324.684509,125.165672 
	C327.428864,126.009254 330.090485,125.258331 332.769379,122.540588 
	C343.175568,111.983604 353.833191,101.674965 364.333527,91.209991 
	C367.115601,88.437256 369.669952,85.435989 373.548309,81.211395 
	C383.274353,91.534103 392.173370,100.979042 401.575409,110.923134 
M329.604401,227.876022 
	C343.898346,242.007812 358.192291,256.139587 372.605103,270.388885 
	C388.830811,253.472748 404.682129,236.946930 421.199524,219.726685 
	C418.128204,221.452148 415.171783,222.422989 413.145294,224.364456 
	C400.763763,236.226166 388.596008,248.310898 376.347931,260.312073 
	C375.203705,261.433228 373.996887,262.490509 371.954834,264.375122 
	C358.641510,250.669907 345.593597,237.351318 332.708038,223.877502 
	C330.130432,221.182236 327.557709,220.405228 323.008453,221.795761 
	C325.473022,224.051895 327.286896,225.712387 329.604401,227.876022 
M457.228394,177.494598 
	C457.232208,181.316483 457.300781,185.139725 457.221954,188.959900 
	C457.140198,192.924179 458.101654,195.885651 462.846558,195.998917 
	C467.575745,196.111801 468.863556,193.097641 468.894501,189.232834 
	C468.978271,178.765182 468.848328,168.295929 468.916534,157.828049 
	C468.941986,153.919586 467.294250,151.944351 463.315063,151.927368 
	C459.159912,151.909622 457.229614,154.004639 457.216125,158.054489 
	C457.195618,164.202377 457.178925,170.350281 457.228394,177.494598 
z"/>
<path fill="#F9F9F9" opacity="1.000000" stroke="none" 
	d="
M400.583435,176.994171 
	C400.583588,170.670181 400.233673,164.813324 400.752228,159.034393 
	C400.966370,156.647644 402.492401,153.353912 404.398621,152.375168 
	C407.541534,150.761459 410.841370,152.238937 412.874237,155.541199 
	C416.011993,160.638397 419.168945,165.724380 422.388031,170.770279 
	C422.899689,171.572281 423.778992,172.139755 424.935425,173.241730 
	C426.146790,171.740616 427.362488,170.469131 428.306824,169.020721 
	C431.395538,164.283356 433.984558,159.142593 437.602173,154.864258 
	C439.142242,153.042923 442.920715,152.018829 445.367126,152.443985 
	C447.000244,152.727829 449.145050,156.168289 449.223907,158.265167 
	C449.617767,168.736145 449.412231,179.230011 449.399414,189.715790 
	C449.395050,193.291046 448.299347,195.954803 444.065765,195.977081 
	C439.841858,195.999313 438.070740,193.804184 438.157532,189.730972 
	C438.226196,186.508835 438.171326,183.284058 438.171326,180.060455 
	C437.490936,179.784409 436.810577,179.508362 436.130188,179.232300 
	C434.095398,181.601532 432.064545,183.974136 430.024994,186.339249 
	C425.732300,191.317215 424.121613,191.332886 419.763367,186.460190 
	C417.714722,184.169708 415.658264,181.886230 413.605347,179.599564 
	C413.040833,179.742569 412.476288,179.885559 411.911743,180.028549 
	C411.911743,183.186020 411.864197,186.344406 411.923767,189.500748 
	C411.998138,193.440369 410.529358,195.916077 406.214233,195.975952 
	C401.733093,196.038147 400.571625,193.289307 400.583679,189.476517 
	C400.596283,185.481949 400.584564,181.487320 400.583435,176.994171 
z"/>
<path fill="#F6F6F6" opacity="1.000000" stroke="none" 
	d="
M293.833740,193.326279 
	C291.640961,190.777527 289.851227,188.332169 287.673340,186.303543 
	C286.343781,185.065094 284.417175,184.467636 282.758728,183.582275 
	C282.062378,185.282700 280.903870,186.947708 280.770325,188.691223 
	C280.526672,191.871887 280.197998,194.760696 276.619080,195.812485 
	C271.721375,197.251846 268.358978,194.851837 268.291504,189.625229 
	C268.164764,179.805847 268.142426,169.981781 268.303772,160.163391 
	C268.389709,154.933029 271.209106,152.206390 276.419373,152.006470 
	C280.907379,151.834274 285.409027,152.044693 289.900330,151.923981 
	C296.194153,151.754807 301.119110,154.236481 303.599579,159.984451 
	C306.278595,166.192474 305.711884,172.370895 301.127411,177.753998 
	C300.271210,178.759338 299.209442,179.589600 297.921661,180.802994 
	C299.224731,182.481033 300.616211,184.099976 301.811523,185.852676 
	C303.598969,188.473572 306.996918,191.133789 303.396667,194.448608 
	C300.309845,197.290756 296.963409,196.368561 293.833740,193.326279 
M280.596313,163.242950 
	C280.834961,166.002243 280.285645,170.644943 281.471191,171.140961 
	C284.201385,172.283203 287.850555,171.782150 290.964447,171.149139 
	C292.030273,170.932480 293.298676,168.297424 293.217896,166.836792 
	C293.140503,165.437714 291.615570,163.203827 290.404694,162.964157 
	C287.474182,162.384079 284.355957,162.752243 280.596313,163.242950 
z"/>
<path fill="#F6F6F6" opacity="1.000000" stroke="none" 
	d="
M218.450150,162.603912 
	C216.368851,166.136871 213.673462,165.557175 210.897858,164.385223 
	C208.605530,163.417374 206.381866,161.691406 204.059845,161.566757 
	C201.984100,161.455307 199.815491,163.073456 197.687851,163.928421 
	C199.040070,165.148087 200.198700,166.889526 201.785065,167.478088 
	C205.025375,168.680298 208.570953,169.039230 211.855774,170.146194 
	C218.683075,172.446930 222.224976,177.259171 221.937607,183.336151 
	C221.676682,188.853928 217.492310,193.934479 210.946579,195.278885 
	C203.016602,196.907608 195.076553,196.660355 187.794861,192.315247 
	C184.625916,190.424301 182.480042,188.091278 184.786072,184.204849 
	C187.073990,180.348953 189.863464,180.380203 193.587982,182.573486 
	C196.366684,184.209793 199.678513,185.276978 202.877457,185.743179 
	C204.948685,186.045029 207.244308,184.807053 209.439392,184.259064 
	C209.451355,183.686356 209.463303,183.113647 209.475266,182.540939 
	C207.978745,181.786545 206.541122,180.866379 204.974350,180.309708 
	C200.758896,178.811951 196.450974,177.571564 192.249985,176.036774 
	C187.959503,174.469284 185.526276,171.245270 185.032364,166.718658 
	C184.522995,162.050308 186.171112,158.223343 190.007477,155.434143 
	C196.553986,150.674545 210.017349,150.456284 216.383591,155.568710 
	C217.936295,156.815613 217.923126,160.012451 218.450150,162.603912 
z"/>
<path fill="#F8F8F8" opacity="1.000000" stroke="none" 
	d="
M313.255493,169.014557 
	C313.256012,165.192215 313.304688,161.865555 313.245056,158.540848 
	C313.166687,154.172424 315.531982,152.062241 319.621277,151.989716 
	C327.434448,151.851135 335.251984,151.983551 343.067291,151.934387 
	C346.589783,151.912216 348.446167,153.876404 348.524139,157.061707 
	C348.604584,160.348083 346.809143,162.169373 343.157166,162.023788 
	C338.342468,161.831863 333.487061,161.690887 328.707458,162.143524 
	C327.147125,162.291275 325.769073,164.364075 324.307678,165.556473 
	C325.788025,166.686005 327.132263,168.441605 328.780273,168.799927 
	C331.321045,169.352341 334.075043,169.051483 336.729309,168.922150 
	C340.015503,168.762009 341.862152,170.159897 341.871063,173.474380 
	C341.879852,176.749908 340.383362,178.883911 336.826935,178.952484 
	C334.167236,179.003784 331.500153,179.083969 328.846985,178.946289 
	C326.266968,178.812408 324.607788,179.619202 324.476746,182.404739 
	C324.337952,185.356552 326.160492,185.992157 328.664764,185.961823 
	C333.486420,185.903412 338.315582,186.097290 343.129700,185.898453 
	C346.751678,185.748856 348.622894,187.466324 348.528534,190.796585 
	C348.439056,193.953613 346.638947,196.000412 343.104614,195.985123 
	C334.956604,195.949875 326.807770,195.918640 318.660400,195.998825 
	C314.800934,196.036789 313.257935,194.068726 313.258362,190.463593 
	C313.259186,183.479431 313.256653,176.495270 313.255493,169.014557 
z"/>
<path fill="#F6F6F6" opacity="1.000000" stroke="none" 
	d="
M394.025848,195.415039 
	C388.662018,196.868149 384.927155,195.841217 383.392242,190.198425 
	C381.961517,184.938660 378.057678,183.863113 372.995178,183.844910 
	C367.975098,183.826859 364.514618,185.409836 363.069763,190.220596 
	C361.781067,194.511261 359.447937,196.754837 354.752899,195.943115 
	C351.386414,195.361084 349.821716,193.248260 351.159363,190.288208 
	C356.627869,178.186874 362.212585,166.128571 368.170563,154.263382 
	C370.081696,150.457397 376.670197,150.697952 378.607910,154.636292 
	C384.465973,166.542816 389.960541,178.631332 395.370209,190.750046 
	C395.862732,191.853470 394.728912,193.682831 394.025848,195.415039 
M373.450470,174.992126 
	C374.566315,174.933853 375.682159,174.875580 377.488800,174.781250 
	C376.125153,172.261414 374.979706,170.144745 373.310455,167.060104 
	C371.730438,170.254349 370.701569,172.334396 369.501465,174.760666 
	C370.994629,174.871887 371.799500,174.931839 373.450470,174.992126 
z"/>
<path fill="#F8F8F8" opacity="1.000000" stroke="none" 
	d="
M491.233582,161.976746 
	C487.972137,161.772934 485.760742,162.960571 486.343170,165.785233 
	C486.612762,167.092712 489.153503,168.473785 490.865204,168.814911 
	C493.428467,169.325729 496.172394,169.040741 498.832367,168.927338 
	C502.276367,168.780487 503.807098,170.609787 503.719147,173.755981 
	C503.636353,176.716217 502.283325,178.893066 498.904968,178.954453 
	C496.407471,178.999847 493.888641,179.174133 491.414825,178.930481 
	C487.292084,178.524429 486.068909,180.522141 486.342377,184.236328 
	C486.488739,186.224579 486.429260,188.231766 486.390930,190.229034 
	C486.318298,194.013992 484.631714,196.108276 480.566376,196.003479 
	C476.739990,195.904861 475.192841,193.832809 475.184143,190.296768 
	C475.157501,179.470932 475.165222,168.644974 475.174225,157.819077 
	C475.177551,153.816635 477.722534,152.095993 481.212463,152.012390 
	C489.202362,151.820999 497.200104,151.972015 505.194519,151.944687 
	C508.843414,151.932205 510.335876,154.123444 510.314026,157.324142 
	C510.292694,160.447571 508.601532,162.128204 505.201538,162.012238 
	C500.709869,161.859039 496.209015,161.975632 491.233582,161.976746 
z"/>
<path fill="#F7F7F7" opacity="1.000000" stroke="none" 
	d="
M238.254822,174.045380 
	C238.254822,172.721207 238.254944,171.888153 238.254791,171.055084 
	C238.253204,162.330490 238.255325,162.255081 229.550873,162.008270 
	C226.246643,161.914581 223.851273,160.891373 223.904694,157.269958 
	C223.955688,153.811493 225.607651,151.832321 229.529160,151.894684 
	C239.523376,152.053696 249.521957,151.977814 259.518463,151.929642 
	C262.563721,151.914978 264.951721,152.728363 264.925873,156.234390 
	C264.900818,159.632416 263.390259,161.754898 259.549438,162.026810 
	C250.999496,162.632080 250.421417,163.387680 250.414215,172.036606 
	C250.409363,177.868042 250.495956,183.701294 250.373978,189.530228 
	C250.297791,193.170258 249.262253,195.996124 244.657074,196.038803 
	C240.004303,196.081940 238.461655,193.635422 238.412918,189.524902 
	C238.353668,184.528824 238.306946,179.532623 238.254822,174.045380 
z"/>
<path fill="#F5F5F5" opacity="1.000000" stroke="none" 
	d="
M528.803345,160.133759 
	C530.763367,162.843613 532.527283,165.250626 534.735107,168.263458 
	C538.207642,163.379837 541.573608,158.914124 544.634216,154.248108 
	C546.700378,151.098145 549.166992,149.755020 552.518738,151.783966 
	C556.082336,153.941208 555.491394,156.954788 553.531311,159.944733 
	C551.252441,163.421219 549.055664,166.962128 546.591858,170.304550 
	C542.122864,176.367279 539.133850,182.772217 539.890442,190.614639 
	C540.199707,193.820145 538.440735,195.936478 534.818726,195.999619 
	C531.297058,196.060989 528.934509,194.077209 529.343689,190.968430 
	C530.707825,180.604691 524.873474,173.294205 519.573303,165.648468 
	C517.963867,163.326828 515.859863,161.077179 515.170227,158.479248 
	C514.668091,156.587616 515.474182,153.543854 516.849182,152.151245 
	C518.811707,150.163574 521.754272,150.127747 523.767822,152.871918 
	C525.438782,155.149155 526.998291,157.508133 528.803345,160.133759 
z"/>
<path fill="#E4E4E4" opacity="1.000000" stroke="none" 
	d="
M401.323914,110.673561 
	C392.173370,100.979042 383.274353,91.534103 373.548309,81.211395 
	C369.669952,85.435989 367.115601,88.437256 364.333527,91.209991 
	C353.833191,101.674965 343.175568,111.983604 332.769379,122.540588 
	C330.090485,125.258331 327.428864,126.009254 324.684509,125.165672 
	C340.318848,108.862831 356.074097,92.433891 372.045135,75.779938 
	C388.519653,93.041290 404.414917,109.695724 420.310181,126.350166 
	C418.590759,125.932121 415.841309,125.385597 413.263245,122.550850 
	C409.570374,118.490265 405.490204,114.781891 401.323914,110.673561 
z"/>
<path fill="#EAEAEA" opacity="1.000000" stroke="none" 
	d="
M329.352600,227.624451 
	C327.286896,225.712387 325.473022,224.051895 323.008453,221.795761 
	C327.557709,220.405228 330.130432,221.182236 332.708038,223.877502 
	C345.593597,237.351318 358.641510,250.669907 371.954834,264.375122 
	C373.996887,262.490509 375.203705,261.433228 376.347931,260.312073 
	C388.596008,248.310898 400.763763,236.226166 413.145294,224.364456 
	C415.171783,222.422989 418.128204,221.452148 421.199524,219.726685 
	C404.682129,236.946930 388.830811,253.472748 372.605103,270.388885 
	C358.192291,256.139587 343.898346,242.007812 329.352600,227.624451 
z"/>
<path fill="#F2F2F2" opacity="1.000000" stroke="none" 
	d="
M457.194519,176.996384 
	C457.178925,170.350281 457.195618,164.202377 457.216125,158.054489 
	C457.229614,154.004639 459.159912,151.909622 463.315063,151.927368 
	C467.294250,151.944351 468.941986,153.919586 468.916534,157.828049 
	C468.848328,168.295929 468.978271,178.765182 468.894501,189.232834 
	C468.863556,193.097641 467.575745,196.111801 462.846558,195.998917 
	C458.101654,195.885651 457.140198,192.924179 457.221954,188.959900 
	C457.300781,185.139725 457.232208,181.316483 457.194519,176.996384 
z"/>
<path fill="#0A0A0A" opacity="1.000000" stroke="none" 
	d="
M280.954834,162.990570 
	C284.355957,162.752243 287.474182,162.384079 290.404694,162.964157 
	C291.615570,163.203827 293.140503,165.437714 293.217896,166.836792 
	C293.298676,168.297424 292.030273,170.932480 290.964447,171.149139 
	C287.850555,171.782150 284.201385,172.283203 281.471191,171.140961 
	C280.285645,170.644943 280.834961,166.002243 280.954834,162.990570 
z"/>
<path fill="#171717" opacity="1.000000" stroke="none" 
	d="
M373.027405,174.991959 
	C371.799500,174.931839 370.994629,174.871887 369.501465,174.760666 
	C370.701569,172.334396 371.730438,170.254349 373.310455,167.060104 
	C374.979706,170.144745 376.125153,172.261414 377.488800,174.781250 
	C375.682159,174.875580 374.566315,174.933853 373.027405,174.991959 
z"/>
</svg>